<?xml version="1.0" encoding="UTF-8" standalone="no"?>
<svg
   xmlns:dc="http://purl.org/dc/elements/1.1/"
   xmlns:cc="http://creativecommons.org/ns#"
   xmlns:rdf="http://www.w3.org/1999/02/22-rdf-syntax-ns#"
   xmlns:svg="http://www.w3.org/2000/svg"
   xmlns="http://www.w3.org/2000/svg"
   xmlns:sodipodi="http://sodipodi.sourceforge.net/DTD/sodipodi-0.dtd"
   xmlns:inkscape="http://www.inkscape.org/namespaces/inkscape"
   width="16"
   height="16"
   version="1.1"
   viewBox="0 0 4.2333 4.2333"
   id="svg12"
   sodipodi:docname="ocr.svg"
   inkscape:version="0.92.4 (5da689c313, 2019-01-14)">
  <metadata
     id="metadata18">
    <rdf:RDF>
      <cc:Work
         rdf:about="">
        <dc:format>image/svg+xml</dc:format>
        <dc:type
           rdf:resource="http://purl.org/dc/dcmitype/StillImage" />
      </cc:Work>
    </rdf:RDF>
  </metadata>
  <defs
     id="defs16" />
  <sodipodi:namedview
     pagecolor="#ffffff"
     bordercolor="#666666"
     borderopacity="1"
     objecttolerance="10"
     gridtolerance="10"
     guidetolerance="10"
     inkscape:pageopacity="0"
     inkscape:pageshadow="2"
     inkscape:window-width="742"
     inkscape:window-height="480"
     id="namedview14"
     showgrid="false"
     inkscape:zoom="14.75"
     inkscape:cx="8.1268453"
     inkscape:cy="9.9182243"
     inkscape:window-x="84"
     inkscape:window-y="359"
     inkscape:window-maximized="0"
     inkscape:current-layer="g10" />
  <g
     transform="translate(0 -292.77)"
     id="g10">
    <path
       d="m1.6667e-8 293.73v2.3136a3.0026 1.6328 0 0 0 2.1167 0.47594 3.0026 1.6328 0 0 0 2.1167-0.47645v-2.3136a3.0026 1.6328 0 0 0-2.1167-0.47594 3.0026 1.6328 0 0 0-2.1167 0.47646zm2.1167 0.15658a1 1 0 0 1 0.99994 0.99994 1 1 0 0 1-0.99994 0.99994 1 1 0 0 1-0.99994-0.99994 1 1 0 0 1 0.99994-0.99994z"
       id="path2" />
    <text
       xml:space="preserve"
       style="font-style:normal;font-weight:normal;font-size:10.58325005px;line-height:1.25;font-family:sans-serif;letter-spacing:0px;word-spacing:0px;fill:#000000;fill-opacity:1;stroke:none;stroke-width:0.26458126"
       x="1.6805043"
       y="295.37552"
       id="text5099"><tspan
         sodipodi:role="line"
         id="tspan5097"
         x="1.6805043"
         y="295.37552"
         style="font-style:normal;font-variant:normal;font-weight:normal;font-stretch:normal;font-size:1.41110003px;font-family:Georgia;-inkscape-font-specification:Georgia;stroke-width:0.26458126">T</tspan></text>
  </g>
</svg>
