<?xml version="1.0" encoding="UTF-8"?>
<svg width="16" height="16" version="1.1" viewBox="0 0 4.2333 4.2333" xmlns="http://www.w3.org/2000/svg">
 <g transform="translate(0 -292.77)">
  <path d="m1.6667e-8 293.73v2.3136a3.0026 1.6328 0 0 0 2.1167 0.47594 3.0026 1.6328 0 0 0 2.1167-0.47645v-2.3136a3.0026 1.6328 0 0 0-2.1167-0.47594 3.0026 1.6328 0 0 0-2.1167 0.47646zm2.1167 0.15658a1 1 0 0 1 0.99994 0.99994 1 1 0 0 1-0.99994 0.99994 1 1 0 0 1-0.99994-0.99994 1 1 0 0 1 0.99994-0.99994z"/>
  <text x="1.6805043" y="295.37552" fill="#000000" font-family="sans-serif" font-size="10.583px" letter-spacing="0px" stroke-width=".26458" word-spacing="0px" style="line-height:1.25" xml:space="preserve"><tspan x="1.6805043" y="295.37552" font-family="Georgia" font-size="1.4111px" stroke-width=".26458">T</tspan></text>
 </g>
</svg>
