<?xml version="1.0" encoding="UTF-8" standalone="no"?>
<!-- Created with Inkscape (http://www.inkscape.org/) -->

<svg
   xmlns:dc="http://purl.org/dc/elements/1.1/"
   xmlns:cc="http://creativecommons.org/ns#"
   xmlns:rdf="http://www.w3.org/1999/02/22-rdf-syntax-ns#"
   xmlns:svg="http://www.w3.org/2000/svg"
   xmlns="http://www.w3.org/2000/svg"
   version="1.1"
   width="32"
   height="32"
   id="svg3056">
  <metadata
     id="metadata3068">
    <rdf:RDF>
      <cc:Work
         rdf:about="">
        <dc:format>image/svg+xml</dc:format>
        <dc:type
           rdf:resource="http://purl.org/dc/dcmitype/StillImage" />
        <dc:title></dc:title>
      </cc:Work>
    </rdf:RDF>
  </metadata>
  <defs
     id="defs3066" />
  <g
     transform="translate(-164,-170.14)"
     id="g3952">
    <g
       id="Lamp_2_">
      <g
         id="g3955">
        <path
           d="m 174.00004,199.92783 -3.23039,0 L 168,186.56422 169,185.14 c 0,-0.80807 0,0.80807 0,0 l -1,-1 6.47267,-6.92969 0.39668,0.3782 c -1.06603,2.14059 -0.70166,4.76484 1.13065,6.55149 0.94972,-1.53696 2.22899,-3.11637 3.78861,-4.60361 1.55964,-1.48725 3.21615,-2.70668 4.82878,-3.61211 -1.17971,-1.0982 -2.70578,-1.64362 -4.23435,-1.64362 -0.90191,0 -1.80382,0.18908 -2.6373,0.56605 l -0.85022,-0.81092 c -0.0168,-0.017 -0.0219,-0.04 -0.0401,-0.057 l -0.84122,-0.80241 c -0.24943,-0.23638 -0.57504,-0.35516 -0.90065,-0.35516 -0.32562,0 -0.65123,0.11878 -0.90067,0.35516 l -1.08539,1.03517 c -0.49748,0.47394 -0.49748,1.24243 0,1.71636 l 0.44449,0.42422 -7.51028,7.78787 -1.0617,1 c 0,0.80807 0,-0.80807 0,0 l 1.0617,1.42422 3.41577,13.36361 -3.87644,0 c -0.38504,0 -0.6461,0.23879 -0.6461,0.60609 0,0.36729 0.26099,0.60608 0.6461,0.60608 l 8.39897,0 c 0.38505,0 0.64611,-0.23879 0.64611,-0.60608 0,-0.3673 -0.261,-0.60609 -0.64611,-0.60609 z m 1.1123,-25.8921 0,0 0.72747,0.69215 0.007,0.0121 0.0982,0.10544 0.0246,0.0267 0.0259,0.0243 0.85022,0.80969 0.63573,0.60609 0.81147,-0.3673 c 0.64867,-0.29331 1.37227,-0.44849 2.09069,-0.44849 0.68484,0 1.34769,0.13578 1.9563,0.39514 -1.19265,0.80846 -2.36336,1.7527 -3.45007,2.7891 -1.0854,1.03395 -2.07518,2.14909 -2.92152,3.28487 -0.55949,-1.20608 -0.56468,-2.61817 0.0517,-3.85577 l 0.38505,-0.77334 -0.63572,-0.60609 -0.39542,-0.3782 -0.9006,-0.85818 -0.44449,-0.42422 1.08415,-1.034 z"
           id="path3957"
           style="fill:#ffffff" />
        <rect
           width="13"
           height="3"
           x="14"
           y="18"
           transform="translate(164,170.14)"
           id="rect4070"
           style="fill:#000000;fill-opacity:0;stroke:none" />
        <rect
           width="13"
           height="16"
           x="179"
           y="183.14"
           id="rect4072"
           style="fill:none;stroke:#ffffff;stroke-width:1.20000005;stroke-linecap:butt;stroke-linejoin:round;stroke-miterlimit:4;stroke-opacity:1;stroke-dasharray:none" />
        <rect
           width="9"
           height="1.4999994"
           x="181"
           y="190.39"
           id="rect4083"
           style="fill:#ffffff;fill-opacity:1;stroke:none" />
        <rect
           width="9"
           height="1.4999994"
           x="181"
           y="187.39"
           id="rect4083-7"
           style="fill:#ffffff;fill-opacity:1;stroke:none" />
        <rect
           width="9"
           height="1.4999994"
           x="181"
           y="193.39"
           id="rect4083-7-5"
           style="fill:#ffffff;fill-opacity:1;stroke:none" />
      </g>
    </g>
  </g>
  <g
     transform="translate(-164,-170.14)"
     id="g3959" />
  <g
     transform="translate(-164,-170.14)"
     id="g3961" />
  <g
     transform="translate(-164,-170.14)"
     id="g3963" />
  <g
     transform="translate(-164,-170.14)"
     id="g3965" />
  <g
     transform="translate(-164,-170.14)"
     id="g3967" />
  <g
     transform="translate(-164,-170.14)"
     id="g3969" />
  <g
     transform="translate(-164,-170.14)"
     id="g3971" />
  <g
     transform="translate(-164,-170.14)"
     id="g3973" />
  <g
     transform="translate(-164,-170.14)"
     id="g3975" />
  <g
     transform="translate(-164,-170.14)"
     id="g3977" />
  <g
     transform="translate(-164,-170.14)"
     id="g3979" />
  <g
     transform="translate(-164,-170.14)"
     id="g3981" />
  <g
     transform="translate(-164,-170.14)"
     id="g3983" />
  <g
     transform="translate(-164,-170.14)"
     id="g3985" />
  <g
     transform="translate(-164,-170.14)"
     id="g3987" />
</svg>
